<?xml version="1.0" encoding="UTF-8"?>
<svg
   width="550"
   height="550"
   viewBox="0 0 16.5 16.5"
   xmlns="http://www.w3.org/2000/svg">

<style>
path {
  fill: black;
}
@media (prefers-color-scheme: dark) {
  path {
    fill: white;
  }
}
</style>

<path
  d="m 9,0 v 2.29642 c 1.0636,0.13263 2.0408,0.54367 2.8563,1.15788 l 1.7346,-1.73463 1.0607,1.06066 -1.7185,1.7185 C 13.6096,5.34237 14.063,6.3726 14.2036,7.5 H 16.5 V 9 h -2.2964 c -0.1366,1.0955 -0.5686,2.0993 -1.2137,2.9292 l 1.6618,1.6618 -1.0606,1.0607 -1.6618,-1.6618 C 11.0994,13.635 10.0956,14.067 9,14.2036 V 16.5 H 7.5 V 14.2036 C 6.3726,14.063 5.34237,13.6096 4.49883,12.9331 L 2.78027,14.6517 1.71961,13.591 3.4543,11.8563 C 2.84009,11.0408 2.42905,10.0636 2.29642,9 H 0 V 7.5 H 2.29642 C 2.43303,6.4044 2.86501,5.40062 3.51014,4.57072 L 1.71975,2.78033 2.78041,1.71967 4.57081,3.51007 C 5.4007,2.86498 6.4045,2.43303 7.5,2.29642 V 0 Z M 8.25,12.75 c 2.4853,0 4.5,-2.0147 4.5,-4.5 0,-2.48528 -2.0147,-4.5 -4.5,-4.5 -2.48528,0 -4.5,2.01472 -4.5,4.5 0,2.4853 2.01472,4.5 4.5,4.5 z m 0,-2.625 C 8.25,10.7463 7.7463,11.25 7.125,11.25 6.5037,11.25 6,10.7463 6,10.125 6,9.5037 6.5037,9 7.125,9 7.7463,9 8.25,9.5037 8.25,10.125 Z M 9,8.25 c 0.8284,0 1.5,-0.6716 1.5,-1.5 0,-0.82843 -0.6716,-1.5 -1.5,-1.5 -0.8284,0 -1.5,0.67157 -1.5,1.5 0,0.8284 0.6716,1.5 1.5,1.5 z"
/>
</svg>
